<?xml version="1.0" encoding="utf-8"?><svg viewBox="0 0 37 37" xmlns="http://www.w3.org/2000/svg" xmlns:xlink="http://www.w3.org/1999/xlink"><style>:root>svg{display:none}:root>svg:target{display:block}</style><svg fill="none" viewBox="0 0 37 37" id="choice" xmlns="http://www.w3.org/2000/svg"><g clip-path="url(#aclip0)" fill="#47DFB1"><path d="M36.606 15.036L19.068 2.195a.961.961 0 00-1.136 0L.393 15.035a.961.961 0 101.136 1.552L18.5 4.162l16.97 12.425a.96.96 0 101.136-1.551z"/><path d="M31.96 16.805c-.532 0-.962.43-.962.961v15.302h-7.69v-8.352a4.813 4.813 0 00-4.808-4.808 4.813 4.813 0 00-4.807 4.807v8.354h-7.69V17.765a.961.961 0 00-1.923 0V34.03c0 .53.43.961.96.961h9.614a.96.96 0 00.962-.961v-9.314A2.888 2.888 0 0118.5 21.83a2.888 2.888 0 012.884 2.885v9.314a.96.96 0 00.961.961h9.614c.531 0 .962-.43.962-.961V17.766a.961.961 0 00-.962-.961z"/></g><defs><clipPath id="aclip0"><path fill="#fff" d="M0 0h37v37H0z"/></clipPath></defs></svg><svg fill="none" viewBox="0 0 37 37" id="comfort" xmlns="http://www.w3.org/2000/svg"><path d="M24.207 0c-6.895 0-12.505 5.61-12.505 12.505 0 1.534.272 3.023.81 4.438L.554 28.9a.912.912 0 00-.267.644v6.544c0 .503.408.911.912.911H6.59a.911.911 0 00.644-.266l1.817-1.815a.912.912 0 00.267-.645v-2.231h2.229a.911.911 0 00.911-.911v-.894h.893a.911.911 0 00.912-.91v-1.962h1.96a.912.912 0 00.645-.267l2.9-2.9c1.415.54 2.904.812 4.438.812 6.895 0 12.505-5.61 12.505-12.506C36.712 5.61 31.102 0 24.207 0zm0 23.188c-1.492 0-2.934-.301-4.288-.895a.911.911 0 00-1.003.182l-.008.008-3.06 3.06h-2.495a.911.911 0 00-.912.912v1.96h-.893a.911.911 0 00-.911.912v.893H8.408a.911.911 0 00-.911.912v2.764l-1.283 1.281H2.11V33.89L13.25 22.75a.82.82 0 10-1.16-1.16l-9.98 9.98v-1.647l12.119-12.12.007-.007a.911.911 0 00.183-1.003 10.608 10.608 0 01-.895-4.287c0-5.891 4.793-10.683 10.683-10.683S34.89 6.615 34.89 12.506c0 5.89-4.793 10.682-10.683 10.682z" fill="#47DFB1"/><path d="M28.013 5.286a3.417 3.417 0 00-3.414 3.413 3.417 3.417 0 003.414 3.414 3.417 3.417 0 003.413-3.414 3.417 3.417 0 00-3.413-3.413zm0 5.004c-.877 0-1.591-.713-1.591-1.59 0-.878.714-1.592 1.59-1.592.878 0 1.592.714 1.592 1.591 0 .878-.714 1.591-1.591 1.591z" fill="#47DFB1"/></svg><svg fill="none" viewBox="0 0 37 37" id="economy" xmlns="http://www.w3.org/2000/svg"><path d="M18.5 0C8.3 0 0 8.3 0 18.5S8.3 37 18.5 37 37 28.7 37 18.5 28.7 0 18.5 0zm0 34.688c-8.926 0-16.187-7.262-16.187-16.188 0-8.926 7.261-16.187 16.187-16.187 8.926 0 16.188 7.261 16.188 16.187 0 8.926-7.262 16.188-16.188 16.188z" fill="#47DFB1"/><path d="M19.656 6.938h-2.312v12.04l7.276 7.277 1.635-1.635-6.599-6.599V6.937z" fill="#47DFB1"/></svg><svg fill="none" viewBox="0 0 37 37" id="safe" xmlns="http://www.w3.org/2000/svg"><g clip-path="url(#dclip0)" fill="#47DFB1"><path d="M33.704 6.39C28.614 4.993 23.493 2.821 18.896.107a.778.778 0 00-.791 0C13.375 2.9 8.53 4.955 3.295 6.39a.778.778 0 00-.572.75v7.953c0 8.19 3.778 13.61 6.947 16.716C13.082 35.15 17.057 37 18.5 37c1.443 0 5.418-1.849 8.83-5.192 3.17-3.105 6.947-8.526 6.947-16.716V7.14a.778.778 0 00-.573-.75zm-.984 8.702c0 7.65-3.523 12.707-6.48 15.604-3.355 3.287-6.942 4.747-7.74 4.747-.797 0-4.385-1.46-7.74-4.747-2.956-2.897-6.48-7.955-6.48-15.604V7.731A61.296 61.296 0 0018.5 1.68a63.236 63.236 0 0014.22 6.05v7.361z"/><path d="M11.601 7.644a.778.778 0 00-1.01-.44 63.323 63.323 0 01-4.24 1.5.778.778 0 00-.546.742v3.006a.778.778 0 001.556 0v-2.437a64.883 64.883 0 003.801-1.362c.4-.158.597-.61.44-1.01zM13.08 7.791c.104 0 .21-.02.312-.065l.014-.006a.777.777 0 00.399-1.025.78.78 0 00-1.027-.4l-.013.006a.777.777 0 00.315 1.49zM27.773 25.097a.778.778 0 00-1.077.225 18.943 18.943 0 01-2.237 2.794 19.876 19.876 0 01-2.232 1.986.778.778 0 00.944 1.238c.85-.648 1.66-1.369 2.407-2.142A20.48 20.48 0 0028 26.174a.778.778 0 00-.226-1.077zM20.42 31.323l-.046.026a.778.778 0 10.78 1.347l.052-.03a.778.778 0 10-.787-1.343zM13.195 16.912a2.514 2.514 0 00-1.79-.741c-.675 0-1.311.263-1.79.74a2.534 2.534 0 000 3.58l4.596 4.596a2.514 2.514 0 001.79.74c.676 0 1.312-.263 1.79-.74l9.594-9.595a2.534 2.534 0 000-3.579 2.514 2.514 0 00-1.79-.74c-.676 0-1.312.262-1.79.74l-7.804 7.805-2.806-2.806zm11.711-3.898a.968.968 0 01.69-.285.975.975 0 01.689 1.663l-9.595 9.594a.968.968 0 01-.689.285.969.969 0 01-.689-.285l-4.596-4.596a.975.975 0 011.378-1.378l3.357 3.357a.779.779 0 001.1 0l8.355-8.355z"/></g><defs><clipPath id="dclip0"><path fill="#fff" d="M0 0h37v37H0z"/></clipPath></defs></svg></svg>