<?xml version="1.0" encoding="utf-8"?><svg viewBox="0 0 29 29" xmlns="http://www.w3.org/2000/svg" xmlns:xlink="http://www.w3.org/1999/xlink"><style>:root>svg{display:none}:root>svg:target{display:block}</style><svg viewBox="0 0 13 13" id="envelope" xmlns="http://www.w3.org/2000/svg"><path d="M11.917 1.625H1.083C.486 1.625 0 2.111 0 2.708v7.584c0 .597.486 1.083 1.083 1.083h10.834c.597 0 1.083-.486 1.083-1.083V2.708c0-.597-.486-1.083-1.083-1.083zm-10.834.542h10.834c.04 0 .075.014.112.022-.938.859-4.048 3.704-5.136 4.684a.6.6 0 01-.393.169.6.6 0 01-.393-.169C5.019 5.893 1.908 3.048.97 2.19c.037-.008.072-.022.112-.022zm-.541 8.125V2.708c0-.053.016-.1.03-.15.718.658 2.888 2.643 4.295 3.922C3.464 7.685 1.294 9.743.57 10.433c-.012-.046-.028-.091-.028-.141zm11.375.541H1.083c-.043 0-.081-.015-.122-.024.748-.713 2.932-2.783 4.31-3.962l.473.428c.223.202.485.308.756.308s.533-.106.756-.307l.473-.429c1.378 1.179 3.562 3.249 4.31 3.962-.04.01-.079.024-.122.024zm.541-.541c0 .05-.015.095-.028.14-.724-.69-2.894-2.747-4.297-3.952C9.54 5.2 11.71 3.216 12.428 2.56c.014.048.03.096.03.15v7.583z"/></svg><svg viewBox="0 0 29 29" id="experience" xmlns="http://www.w3.org/2000/svg"><g clip-path="url(#bclip0)"><path d="M27.764 14.396l-.021.001a1.482 1.482 0 00-1.38 1.124l-.456 1.869a6.111 6.111 0 01-3.262 4.055.55.55 0 01-.582-.055.55.55 0 01-.215-.544l.36-2.057a1.144 1.144 0 00-.908-1.327 1.144 1.144 0 00-1.195.508l-2.326 3.633a.853.853 0 00-1.1.088l-1.687 1.686a.425.425 0 000 .601l4.898 4.898a.424.424 0 00.6 0l1.687-1.687a.853.853 0 00.047-1.153c.541-.301 1.07-.646 1.57-1.026a.425.425 0 00-.513-.677c-.861.653-1.583 1.02-1.678 1.076L18.4 22.207l2.42-3.779a.3.3 0 01.312-.133.3.3 0 01.237.348l-.359 2.057a1.403 1.403 0 00.542 1.369c.425.32.987.373 1.465.14a6.958 6.958 0 003.715-4.618l.455-1.869c.146-.602 1.012-.63.96-.102a12.471 12.471 0 01-3.627 7.636.425.425 0 10.598.603 13.322 13.322 0 003.875-8.157 1.191 1.191 0 00-1.23-1.306zM20.19 27.974l-4.296-4.296 1.39-1.387 4.292 4.297-1.386 1.386zM8.983 7.165l.565.313a.03.03 0 01.011.011l.884 1.53c.003.005.004.01.004.016l-.011.646a.88.88 0 00.44.776l1.28.74a.878.878 0 00.891-.008l.554-.333a.03.03 0 01.015-.004h1.768a.03.03 0 01.015.004l.554.333a.879.879 0 00.892.007l1.28-.739a.88.88 0 00.44-.776l-.012-.646a.03.03 0 01.004-.015l.884-1.53a.03.03 0 01.01-.012l.566-.313a.88.88 0 00.453-.769V4.918a.88.88 0 00-.453-.769l-.565-.313a.03.03 0 01-.011-.01l-.051-.09a.425.425 0 00-.736.426l.05.088a.88.88 0 00.336.33l.565.312a.03.03 0 01.015.026v1.478a.03.03 0 01-.015.026l-.565.313a.88.88 0 00-.335.33l-.884 1.53a.88.88 0 00-.118.455l.012.646a.03.03 0 01-.015.026l-1.28.739a.03.03 0 01-.03 0l-.554-.333a.88.88 0 00-.452-.126h-1.768a.879.879 0 00-.452.126l-.554.332a.03.03 0 01-.03 0l-1.28-.738a.03.03 0 01-.015-.026l.011-.646a.879.879 0 00-.117-.455l-.884-1.53a.879.879 0 00-.335-.33l-.565-.313a.03.03 0 01-.015-.026V4.918c0-.01.006-.02.015-.026l.565-.313a.878.878 0 00.335-.33l.884-1.53a.88.88 0 00.117-.455l-.01-.645c-.001-.011.005-.02.014-.026l1.28-.74a.03.03 0 01.03 0l.554.334a.88.88 0 00.452.125h1.768a.88.88 0 00.452-.125l.554-.333a.03.03 0 01.03 0l1.28.739a.03.03 0 01.015.026l-.012.645a.884.884 0 00.087.393.425.425 0 10.763-.378l.011-.645a.88.88 0 00-.44-.777l-1.28-.74a.879.879 0 00-.892.009L15.4.458a.03.03 0 01-.015.004h-1.768a.03.03 0 01-.015-.004l-.554-.332a.88.88 0 00-.892-.008l-1.28.739a.88.88 0 00-.44.776l.012.646c0 .006-.001.01-.004.015l-.884 1.531a.03.03 0 01-.01.011l-.566.313a.88.88 0 00-.453.769v1.478c0 .32.174.614.453.769z"/><path d="M14.5 3.088a2.572 2.572 0 00-2.569 2.57 2.572 2.572 0 002.57 2.568 2.572 2.572 0 002.568-2.569A2.572 2.572 0 0014.5 3.088zm0 4.289c-.948 0-1.72-.772-1.72-1.72s.772-1.72 1.72-1.72 1.72.772 1.72 1.72-.772 1.72-1.72 1.72zM22.229 13.999a1.914 1.914 0 001.911-1.912 1.914 1.914 0 00-1.912-1.911 1.914 1.914 0 00-1.911 1.911c0 1.054.857 1.912 1.912 1.912zm0-2.974a1.063 1.063 0 010 2.124 1.063 1.063 0 010-2.124z"/><path d="M19.28 9.3l.007.417-.582 1.008-.365.203a.74.74 0 00-.381.647V12.6a.74.74 0 00.381.647l.365.202.582 1.008-.007.418a.74.74 0 00.37.653l.887.513a.739.739 0 00.751-.007l.358-.215h1.165l.357.215a.74.74 0 00.751.007l.888-.513a.74.74 0 00.37-.653l-.008-.418.582-1.008.366-.202a.74.74 0 00.38-.647v-1.025a.74.74 0 00-.38-.647l-.366-.203-.582-1.008.008-.417a.74.74 0 00-.37-.654l-.888-.512a.74.74 0 00-.75.006l-.358.215h-1.165l-.358-.215a.74.74 0 00-.75-.006l-.888.512a.74.74 0 00-.37.654zm.85.05l.776-.448.329.197a.74.74 0 00.38.106h1.226a.74.74 0 00.381-.106l.328-.197.776.447-.007.384a.74.74 0 00.1.382l.612 1.061a.738.738 0 00.282.278l.335.185v.896l-.335.186a.739.739 0 00-.282.277l-.613 1.06a.74.74 0 00-.099.384l.007.383-.776.448-.328-.198a.74.74 0 00-.381-.105h-1.226a.74.74 0 00-.38.105l-.329.198-.775-.448.006-.383a.74.74 0 00-.099-.383l-.612-1.061a.738.738 0 00-.282-.277l-.335-.186v-.896l.334-.185a.738.738 0 00.283-.277l.612-1.061a.739.739 0 00.1-.383l-.007-.384zM6.771 13.999a1.914 1.914 0 001.912-1.912 1.914 1.914 0 00-1.912-1.911 1.914 1.914 0 00-1.911 1.911C4.86 13.141 5.717 14 6.77 14zm0-2.974a1.063 1.063 0 010 2.124 1.063 1.063 0 010-2.124z"/><path d="M2.883 13.247l.365.202.582 1.008-.007.418a.74.74 0 00.37.653l.887.513a.74.74 0 00.751-.007l.358-.215h1.165l.357.215a.74.74 0 00.751.007l.888-.513a.74.74 0 00.37-.653l-.008-.418.582-1.008.366-.203a.74.74 0 00.38-.646v-1.025a.74.74 0 00-.38-.647l-.366-.203-.582-1.008.008-.418a.74.74 0 00-.37-.653l-.888-.512a.74.74 0 00-.75.006l-.358.215H6.189l-.358-.215a.74.74 0 00-.75-.007l-.888.513a.74.74 0 00-.37.654l.007.417-.582 1.008-.365.203a.74.74 0 00-.381.647V12.6a.74.74 0 00.381.647zm.469-1.608l.334-.185a.74.74 0 00.283-.277l.612-1.062a.74.74 0 00.1-.383l-.007-.383.775-.447.328.197a.74.74 0 00.382.106h1.225a.74.74 0 00.381-.106l.329-.197.775.447-.007.384a.74.74 0 00.1.382l.612 1.062a.74.74 0 00.282.277l.335.185v.896l-.335.186a.74.74 0 00-.282.277l-.613 1.061a.74.74 0 00-.099.383l.007.383-.775.448-.329-.198a.74.74 0 00-.38-.105H6.158a.74.74 0 00-.381.105l-.329.198-.775-.448.006-.383a.74.74 0 00-.099-.383l-.612-1.061a.74.74 0 00-.282-.277l-.335-.186v-.896z"/><path d="M12.321 21.69a.853.853 0 00-1.1-.087L8.895 17.97a1.143 1.143 0 00-1.195-.508 1.144 1.144 0 00-.907 1.327l.359 2.057a.55.55 0 01-.215.544.55.55 0 01-.582.055 6.11 6.11 0 01-3.262-4.055l-.455-1.869a1.482 1.482 0 00-1.381-1.124h-.021c-.72-.028-1.3.587-1.23 1.305a13.288 13.288 0 006.77 10.333.853.853 0 00.047 1.154l1.687 1.687a.424.424 0 00.6 0l1.886-1.885a.425.425 0 00-.601-.601L8.81 27.974l-1.386-1.39 4.296-4.293 1.387 1.387-1.511 1.51a.425.425 0 00.6.602l1.812-1.812a.425.425 0 000-.6L12.32 21.69zM.851 15.62a.342.342 0 01.353-.375l.021.001c.285.01.52.202.587.476l.455 1.869a6.958 6.958 0 003.715 4.617c.478.234 1.04.18 1.465-.14.426-.319.633-.843.542-1.368l-.36-2.057a.3.3 0 01.238-.348.3.3 0 01.313.133l2.419 3.78-3.202 3.2c-.051-.047-5.866-2.776-6.546-9.788z"/></g><defs><clipPath id="bclip0"><path d="M0 0h29v29H0z"/></clipPath></defs></svg><svg fill="none" viewBox="0 0 8 8" id="has-submenu" xmlns="http://www.w3.org/2000/svg"><g clip-path="url(#cclip0)"><path d="M4 6.28a.559.559 0 01-.396-.164l-3.44-3.44a.56.56 0 11.792-.792L4 4.928l3.044-3.044a.56.56 0 01.792.792l-3.44 3.44A.559.559 0 014 6.28z" fill="#393939"/></g><defs><clipPath id="cclip0"><path fill="#fff" d="M0 0h8v8H0z"/></clipPath></defs></svg><svg viewBox="0 0 15 15" id="more" xmlns="http://www.w3.org/2000/svg"><path d="M7.5 0a7.5 7.5 0 100 15 7.5 7.5 0 000-15zm0 13.75a6.25 6.25 0 110-12.5 6.25 6.25 0 010 12.5z"/><path d="M6.692 3.933a.625.625 0 00-.884.884L8.491 7.5l-2.683 2.683a.625.625 0 00.884.884l3.125-3.125a.625.625 0 000-.884L6.692 3.933z"/></svg><svg viewBox="0 0 14 14" id="phone" xmlns="http://www.w3.org/2000/svg"><g clip-path="url(#eclip0)"><path d="M12.877 9.19a7.948 7.948 0 01-2.497-.398c-.39-.134-.87-.011-1.11.234l-1.573 1.188c-1.826-.974-2.95-2.099-3.912-3.91L4.94 4.77c.3-.299.407-.736.278-1.146a7.96 7.96 0 01-.4-2.5C4.818.503 4.315 0 3.695 0h-2.57C.503 0 0 .504 0 1.123 0 8.223 5.776 14 12.877 14c.62 0 1.123-.504 1.123-1.123v-2.564c0-.62-.504-1.124-1.123-1.124z"/></g><defs><clipPath id="eclip0"><path d="M0 0h14v14H0z"/></clipPath></defs></svg><svg viewBox="0 0 29 29" id="prices" xmlns="http://www.w3.org/2000/svg"><path d="M27.669 4.439l-5.047-2.103a2.28 2.28 0 00-1.742 0l-2.423 1.01a.425.425 0 00.327.784l2.423-1.01a1.425 1.425 0 011.088 0l5.047 2.103c.49.205.808.665.808 1.173v18.168c0 .706-.607 1.28-1.352 1.28h-.69a.425.425 0 000 .85h.69c1.214 0 2.202-.956 2.202-2.13V6.396c0-.852-.523-1.62-1.331-1.957zM24.258 25.845H17.12c.293-.334.454-.758.454-1.207 0-.447-.162-.858-.43-1.176a1.815 1.815 0 00.999-1.63c0-.464-.175-.89-.463-1.212a1.827 1.827 0 00.47-2.803 1.817 1.817 0 00.935-1.595 1.83 1.83 0 00-1.828-1.827h-1.905V6.396c0-.508.318-.968.808-1.173l.773-.321a.425.425 0 10-.327-.785l-.773.322a2.129 2.129 0 00-1.33 1.957v7.999h-1.775c.59-1.868.54-3.817-.15-6.08a1.658 1.658 0 00-1.59-1.172c-.46 0-.889.185-1.206.52a1.649 1.649 0 00-.455 1.23c.133 2.555-1.046 3.434-2.676 4.651-.537.4-1.124.84-1.7 1.377v-.557a.425.425 0 00-.426-.425h-4.1a.425.425 0 00-.425.425v12.048c0 .234.19.425.425.425h4.1c.235 0 .425-.19.425-.425v-1.069c.807.077 1.397.238 1.97.676.375.288.838.447 1.304.447h7.492c.306.15.645.228.989.228h7.552a.425.425 0 100-.85zm-16.822-.5c-.801-.614-1.657-.784-2.486-.856v-4.96a.425.425 0 10-.85 0v6.458H.85V14.789H4.1v2.889a.425.425 0 10.85 0v-1.55c.711-.785 1.472-1.353 2.209-1.903 1.632-1.217 3.173-2.367 3.016-5.375a.806.806 0 01.223-.603.813.813 0 011.368.317c.703 2.304.692 4.243-.034 6.101a.425.425 0 00.395.58h5.13a.979.979 0 010 1.956h-1.745a.425.425 0 100 .85h1.27a.979.979 0 010 1.955h-1.27a.425.425 0 100 .85h.804a.979.979 0 010 1.955h-1.27a.425.425 0 100 .85h.701a.979.979 0 01.692 1.67 1.034 1.034 0 01-.65.285H8.225c-.28 0-.56-.096-.788-.271z"/><path d="M23.285 6.585a1.62 1.62 0 00-1.62-1.62 1.62 1.62 0 00-1.618 1.62 1.62 1.62 0 001.619 1.619 1.62 1.62 0 001.619-1.62zm-2.389 0a.77.77 0 111.54.001.77.77 0 01-1.54-.001zM21.931 21.08h-.762a.729.729 0 01-.727-.728.425.425 0 10-.85 0c0 .855.684 1.553 1.533 1.576v.94a.425.425 0 10.85 0v-.94a1.579 1.579 0 001.534-1.576v-.588c0-.546-.35-1.026-.868-1.194l-1.92-.624a.405.405 0 01-.28-.386v-.842c0-.326.266-.59.591-.59h1.036c.326 0 .59.264.59.59a.425.425 0 10.85 0c0-.794-.646-1.44-1.44-1.44h-.093v-.94a.425.425 0 10-.85 0v.94h-.093c-.794 0-1.44.646-1.44 1.44v.842c0 .546.348 1.026.867 1.194l1.92.624c.167.054.28.21.28.386v.588a.728.728 0 01-.728.728z"/></svg><svg viewBox="0 0 29 29" id="quality" xmlns="http://www.w3.org/2000/svg"><g clip-path="url(#gclip0)"><path d="M14.01 11.058a.43.43 0 00.647-.074l2.828-4.267a.425.425 0 00-.709-.47l-2.548 3.846-1.415-1.344a.425.425 0 00-.585.616l1.782 1.693z"/><path d="M14.3 17.537a.63.63 0 00.26.057h.004c.091 0 .182-.021.264-.06 6.46-3.072 7.554-9.7 7.736-11.66a1.015 1.015 0 00-.627-1.035 3.712 3.712 0 01-2.281-3.116.839.839 0 00-.833-.76h-.005l-8.703.051a.832.832 0 00-.828.775 3.713 3.713 0 01-2.248 3.139 1.012 1.012 0 00-.61 1.041c.204 1.956 1.376 8.572 7.871 11.568zM7.373 5.709a4.559 4.559 0 002.76-3.846l8.678-.05a4.56 4.56 0 002.8 3.81.17.17 0 01.107.174c-.17 1.835-1.19 8.023-7.159 10.923-6.003-2.83-7.094-9.006-7.286-10.839a.167.167 0 01.1-.172z"/><path d="M8.434 8.064c.051.189.29.362.521.298a.425.425 0 00.299-.521c-.108-.399-.2-.803-.27-1.203a5.974 5.974 0 002.43-3.186l6.135-.036a5.974 5.974 0 002.468 3.157 13.86 13.86 0 01-.257 1.207.425.425 0 00.823.213c.121-.47.22-.947.294-1.418a.65.65 0 00-.306-.659 5.127 5.127 0 01-2.255-2.89.657.657 0 00-.624-.46h-.004l-6.423.037a.657.657 0 00-.623.469 5.127 5.127 0 01-2.22 2.916.65.65 0 00-.3.662c.08.47.185.946.312 1.414zM19.724 9.323a.425.425 0 00-.555.23c-.982 2.38-2.536 4.19-4.62 5.38-2.101-1.168-3.678-2.961-4.687-5.333a.425.425 0 00-.782.332c1.101 2.589 2.837 4.54 5.158 5.8a.65.65 0 00.63-.004c2.304-1.285 4.015-3.254 5.086-5.85a.424.424 0 00-.23-.555zM2.726 22.7c-.829 0-1.503.674-1.503 1.503 0 .829.674 1.503 1.503 1.503.828 0 1.503-.674 1.503-1.503 0-.829-.674-1.503-1.503-1.503zm0 2.156a.654.654 0 11.001-1.308.654.654 0 01-.001 1.308z"/><path d="M28.695 18.541a1.77 1.77 0 00-2.443-.472l-5.554 3.716-1.185-.066-.03-.304a2.578 2.578 0 00-2.233-2.306l-5.984-.524c-.202-.032-.85-.218-2.63-1.24a6.609 6.609 0 00-3.028-.87v-1.112c0-.557-.454-1.01-1.012-1.01H1.011c-.557 0-1.011.453-1.011 1.01V26.31c0 .558.454 1.011 1.011 1.011h3.585c.558 0 1.012-.453 1.012-1.01v-.302l5.23 1.98c.012.005.437.164 1.218.09l8.691-1.253.007-.001a4.274 4.274 0 002.025-.907l.015-.014 5.614-5.048a1.77 1.77 0 00.287-2.314zm-.853 1.68l-5.608 5.044a3.424 3.424 0 01-1.611.72l-8.685 1.252h-.008l-.004.001c-.26.041-.53.024-.805-.051l-5.513-2.088v-4.851a.425.425 0 10-.85 0v6.061c0 .09-.073.162-.162.162H1.011a.162.162 0 01-.161-.162V15.363c0-.089.072-.161.161-.161h3.585c.09 0 .162.072.162.162v2.965a.425.425 0 10.85 0v-1.004c.911.04 1.807.3 2.604.758 2.148 1.232 2.748 1.317 2.945 1.345l.022.002 5.985.525c.79.116 1.394.75 1.473 1.544l.023.227-8.013.494-.016-.001a.968.968 0 01-.66-.346.424.424 0 10-.653.544 1.84 1.84 0 001.238.648c.262.028 8.57-.517 8.57-.517l1.666.094a.424.424 0 00.26-.072l5.673-3.796a.918.918 0 011.268.245.919.919 0 01-.151 1.202z"/></g><defs><clipPath id="gclip0"><path d="M0 0h29v29H0z"/></clipPath></defs></svg><svg viewBox="0 0 13 13" id="telegram" xmlns="http://www.w3.org/2000/svg"><g clip-path="url(#hclip0)"><path d="M12.485.86L0 5.91v.73l3.576 1.104 1.13 3.628h.903l1.456-1.489 3.072 2.257.598-.228L13 1.292 12.485.86zm-2.372 10.317L6.067 8.205l-.451.614.829.609-1.178 1.182-.924-2.964 5.352-3.195-.39-.655L3.874 7.04l-2.627-.811 10.858-4.393-1.992 9.342z"/></g><defs><clipPath id="hclip0"><path d="M0 0h13v13H0z"/></clipPath></defs></svg><svg viewBox="0 0 19 19" id="vk" xmlns="http://www.w3.org/2000/svg"><g clip-path="url(#iclip0)"><path d="M15.766 10.314c-.307-.388-.22-.56 0-.907.004-.004 2.54-3.508 2.801-4.697h.002c.13-.433 0-.752-.628-.752h-2.078c-.528 0-.772.273-.903.58 0 0-1.058 2.53-2.554 4.172-.483.474-.706.626-.97.626-.13 0-.331-.152-.331-.585V4.71c0-.52-.148-.752-.586-.752H7.252c-.331 0-.528.243-.528.468 0 .493.748.606.825 1.991v3.006c0 .659-.12.78-.384.78-.707 0-2.42-2.542-3.436-5.451-.205-.565-.406-.793-.938-.793H.712C.12 3.96 0 4.232 0 4.538c0 .54.706 3.224 3.284 6.771 1.718 2.42 4.137 3.733 6.338 3.733 1.323 0 1.484-.292 1.484-.793 0-2.313-.12-2.532.543-2.532.308 0 .836.152 2.071 1.32 1.412 1.385 1.644 2.005 2.434 2.005h2.077c.592 0 .892-.292.72-.866-.395-1.21-3.065-3.696-3.185-3.862z"/></g><defs><clipPath id="iclip0"><path fill="#fff" d="M0 0h19v19H0z"/></clipPath></defs></svg><svg viewBox="0 0 13 13" id="whatsapp" xmlns="http://www.w3.org/2000/svg"><g clip-path="url(#jclip0)"><path d="M11.153 1.846A6.262 6.262 0 006.696 0C5.861 0 5.05.161 4.282.48a6.273 6.273 0 00-2.045 1.366A6.263 6.263 0 00.392 6.304c0 1.004.242 2.002.701 2.892l-1.06 3.027a.58.58 0 00.139.605.58.58 0 00.605.139l3.027-1.06c.89.46 1.888.701 2.892.701a6.263 6.263 0 004.457-1.846A6.263 6.263 0 0013 6.304a6.263 6.263 0 00-1.847-4.458zm-.539 8.377a5.505 5.505 0 01-3.918 1.623 5.556 5.556 0 01-2.602-.648.587.587 0 00-.468-.036l-2.75.962.962-2.75a.587.587 0 00-.036-.468 5.556 5.556 0 01-.648-2.602c0-1.48.576-2.872 1.623-3.918A5.506 5.506 0 016.695.762c1.481 0 2.873.577 3.92 1.624a5.505 5.505 0 011.623 3.918c0 1.48-.577 2.872-1.624 3.919z"/><path d="M9.038 6.867a.745.745 0 00-1.052 0l-.317.318A4.617 4.617 0 015.815 5.33l.317-.318a.744.744 0 000-1.052l-.854-.854a.745.745 0 00-1.052 0l-.684.683c-.392.392-.411 1.065-.055 1.896.309.722.875 1.515 1.593 2.233.719.719 1.512 1.285 2.233 1.594.395.17.754.254 1.065.254.343 0 .626-.103.831-.309l.684-.684a.739.739 0 00.218-.526.738.738 0 00-.218-.526l-.855-.855zM8.67 8.92c-.112.112-.455.15-1.056-.107-.635-.272-1.343-.78-1.995-1.432-.65-.651-1.16-1.36-1.431-1.994-.258-.6-.219-.945-.107-1.056l.67-.671.829.828-.397.398a.582.582 0 00-.108.677 5.379 5.379 0 002.363 2.363.582.582 0 00.677-.108l.397-.397.829.828-.67.67z"/></g><defs><clipPath id="jclip0"><path d="M0 0h13v13H0z"/></clipPath></defs></svg></svg>