<?xml version="1.0" encoding="utf-8"?><svg viewBox="0 0 14 14" xmlns="http://www.w3.org/2000/svg" xmlns:xlink="http://www.w3.org/1999/xlink"><style>:root>svg{display:none}:root>svg:target{display:block}</style><svg viewBox="0 0 13 13" id="envelope" xmlns="http://www.w3.org/2000/svg"><path d="M11.917 1.625H1.083C.486 1.625 0 2.111 0 2.708v7.584c0 .597.486 1.083 1.083 1.083h10.834c.597 0 1.083-.486 1.083-1.083V2.708c0-.597-.486-1.083-1.083-1.083zm-10.834.542h10.834c.04 0 .075.014.112.022-.938.859-4.048 3.704-5.136 4.684a.6.6 0 01-.393.169.6.6 0 01-.393-.169C5.019 5.893 1.908 3.048.97 2.19c.037-.008.072-.022.112-.022zm-.541 8.125V2.708c0-.053.016-.1.03-.15.718.658 2.888 2.643 4.295 3.922C3.464 7.685 1.294 9.743.57 10.433c-.012-.046-.028-.091-.028-.141zm11.375.541H1.083c-.043 0-.081-.015-.122-.024.748-.713 2.932-2.783 4.31-3.962l.473.428c.223.202.485.308.756.308s.533-.106.756-.307l.473-.429c1.378 1.179 3.562 3.249 4.31 3.962-.04.01-.079.024-.122.024zm.541-.541c0 .05-.015.095-.028.14-.724-.69-2.894-2.747-4.297-3.952C9.54 5.2 11.71 3.216 12.428 2.56c.014.048.03.096.03.15v7.583z"/></svg><svg fill="none" viewBox="0 0 8 8" id="has-submenu" xmlns="http://www.w3.org/2000/svg"><g clip-path="url(#bclip0)"><path d="M4 6.28a.559.559 0 01-.396-.164l-3.44-3.44a.56.56 0 11.792-.792L4 4.928l3.044-3.044a.56.56 0 01.792.792l-3.44 3.44A.559.559 0 014 6.28z" fill="#393939"/></g><defs><clipPath id="bclip0"><path fill="#fff" d="M0 0h8v8H0z"/></clipPath></defs></svg><svg viewBox="0 0 14 14" id="phone" xmlns="http://www.w3.org/2000/svg"><g clip-path="url(#cclip0)"><path d="M12.877 9.19a7.948 7.948 0 01-2.497-.398c-.39-.134-.87-.011-1.11.234l-1.573 1.188c-1.826-.974-2.95-2.099-3.912-3.91L4.94 4.77c.3-.299.407-.736.278-1.146a7.96 7.96 0 01-.4-2.5C4.818.503 4.315 0 3.695 0h-2.57C.503 0 0 .504 0 1.123 0 8.223 5.776 14 12.877 14c.62 0 1.123-.504 1.123-1.123v-2.564c0-.62-.504-1.124-1.123-1.124z"/></g><defs><clipPath id="cclip0"><path d="M0 0h14v14H0z"/></clipPath></defs></svg><svg viewBox="0 0 13 13" id="telegram" xmlns="http://www.w3.org/2000/svg"><g clip-path="url(#dclip0)"><path d="M12.485.86L0 5.91v.73l3.576 1.104 1.13 3.628h.903l1.456-1.489 3.072 2.257.598-.228L13 1.292 12.485.86zm-2.372 10.317L6.067 8.205l-.451.614.829.609-1.178 1.182-.924-2.964 5.352-3.195-.39-.655L3.874 7.04l-2.627-.811 10.858-4.393-1.992 9.342z"/></g><defs><clipPath id="dclip0"><path d="M0 0h13v13H0z"/></clipPath></defs></svg><svg viewBox="0 0 13 13" id="whatsapp" xmlns="http://www.w3.org/2000/svg"><g clip-path="url(#eclip0)"><path d="M11.153 1.846A6.262 6.262 0 006.696 0C5.861 0 5.05.161 4.282.48a6.273 6.273 0 00-2.045 1.366A6.263 6.263 0 00.392 6.304c0 1.004.242 2.002.701 2.892l-1.06 3.027a.58.58 0 00.139.605.58.58 0 00.605.139l3.027-1.06c.89.46 1.888.701 2.892.701a6.263 6.263 0 004.457-1.846A6.263 6.263 0 0013 6.304a6.263 6.263 0 00-1.847-4.458zm-.539 8.377a5.505 5.505 0 01-3.918 1.623 5.556 5.556 0 01-2.602-.648.587.587 0 00-.468-.036l-2.75.962.962-2.75a.587.587 0 00-.036-.468 5.556 5.556 0 01-.648-2.602c0-1.48.576-2.872 1.623-3.918A5.506 5.506 0 016.695.762c1.481 0 2.873.577 3.92 1.624a5.505 5.505 0 011.623 3.918c0 1.48-.577 2.872-1.624 3.919z"/><path d="M9.038 6.867a.745.745 0 00-1.052 0l-.317.318A4.617 4.617 0 015.815 5.33l.317-.318a.744.744 0 000-1.052l-.854-.854a.745.745 0 00-1.052 0l-.684.683c-.392.392-.411 1.065-.055 1.896.309.722.875 1.515 1.593 2.233.719.719 1.512 1.285 2.233 1.594.395.17.754.254 1.065.254.343 0 .626-.103.831-.309l.684-.684a.739.739 0 00.218-.526.738.738 0 00-.218-.526l-.855-.855zM8.67 8.92c-.112.112-.455.15-1.056-.107-.635-.272-1.343-.78-1.995-1.432-.65-.651-1.16-1.36-1.431-1.994-.258-.6-.219-.945-.107-1.056l.67-.671.829.828-.397.398a.582.582 0 00-.108.677 5.379 5.379 0 002.363 2.363.582.582 0 00.677-.108l.397-.397.829.828-.67.67z"/></g><defs><clipPath id="eclip0"><path d="M0 0h13v13H0z"/></clipPath></defs></svg></svg>