<svg width="14" height="14" viewBox="0 0 14 14" xmlns="http://www.w3.org/2000/svg">
<path d="M4.71973 7.07179L-2.19345e-05 10.0555V3.96204L4.71973 7.07179Z" />
<path d="M14 3.96204V10.0555L9.28025 7.07179L14 3.96204Z" />
<path d="M0.874877 2.1875H13.1249C13.5615 2.1875 13.908 2.513 13.9736 2.93213L6.99988 7.52675L0.0261269 2.93213C0.0917521 2.513 0.438252 2.1875 0.874877 2.1875Z" />
<path d="M5.52141 7.60024L6.75954 8.41574C6.83304 8.46387 6.91616 8.48749 7.00016 8.48749C7.08416 8.48749 7.16729 8.46387 7.24079 8.41574L8.47891 7.59937L13.9722 11.074C13.9048 11.4896 13.56 11.8125 13.1252 11.8125H0.875156C0.440281 11.8125 0.0955296 11.4896 0.0281553 11.074L5.52141 7.60024Z" />
</svg>
