<svg width="13" height="13" viewBox="0 0 13 13" fill="none" xmlns="http://www.w3.org/2000/svg">
<path d="M11.9167 1.625H1.08334C0.48585 1.625 0 2.11085 0 2.70834V10.2917C0 10.8892 0.48585 11.375 1.08334 11.375H11.9167C12.5142 11.375 13 10.8892 13 10.2917V2.70834C13 2.11085 12.5142 1.625 11.9167 1.625ZM1.08334 2.16666H11.9167C11.9566 2.16666 11.9918 2.18121 12.0292 2.18943C11.0913 3.04781 7.98137 5.89289 6.89305 6.87345C6.80789 6.95015 6.67063 7.04166 6.50003 7.04166C6.32943 7.04166 6.19216 6.95015 6.10672 6.87319C5.01851 5.89278 1.90838 3.04756 0.970633 2.18948C1.00816 2.18126 1.0434 2.16666 1.08334 2.16666ZM0.541658 10.2917V2.70834C0.541658 2.65528 0.557654 2.60713 0.571975 2.55864C1.28982 3.21565 3.4598 5.20079 4.86685 6.4803C3.46437 7.68501 1.29383 9.74287 0.570273 10.4328C0.557502 10.3868 0.541658 10.3417 0.541658 10.2917ZM11.9167 10.8333H1.08334C1.04008 10.8333 1.00161 10.8183 0.961213 10.8086C1.70889 10.0958 3.89325 8.02615 5.27107 6.84745C5.45068 7.01038 5.61476 7.15894 5.7441 7.27548C5.96733 7.47703 6.22862 7.58334 6.5 7.58334C6.77138 7.58334 7.03267 7.47701 7.25563 7.27573C7.38502 7.15914 7.54922 7.01045 7.72893 6.84745C9.10683 8.02603 11.2909 10.0956 12.0388 10.8086C11.9984 10.8183 11.96 10.8333 11.9167 10.8333ZM12.4583 10.2917C12.4583 10.3417 12.4425 10.3868 12.4298 10.4328C11.7059 9.74251 9.53563 7.68488 8.13318 6.48032C9.54027 5.20081 11.7099 3.21585 12.428 2.55859C12.4423 2.60708 12.4583 2.65525 12.4583 2.70832V10.2917Z" fill="#095830"/>
</svg>
