<svg width="39" height="40" viewBox="0 0 39 40" xmlns="http://www.w3.org/2000/svg">
<g clip-path="url(#clip0)">
<path d="M16.4531 21.3608C16.0333 21.3608 15.6914 21.7003 15.6914 22.1165C15.6914 22.5339 16.0333 22.8722 16.4531 22.8722C16.873 22.8722 17.2148 22.5339 17.2148 22.1165C17.2148 21.7003 16.873 21.3608 16.4531 21.3608Z" />
<path d="M22.5469 21.3608H19.5C19.0802 21.3608 18.7383 21.7003 18.7383 22.1165C18.7383 22.5339 19.0802 22.8722 19.5 22.8722H22.5469C22.9667 22.8722 23.3086 22.5339 23.3086 22.1165C23.3086 21.7003 22.9667 21.3608 22.5469 21.3608Z" />
<path d="M30.5681 38.1365H29.8064V4.73655C29.8064 4.73626 29.7981 4.61199 29.7835 4.55325C29.2503 2.43651 27.3418 0.958252 25.1424 0.958252H14.6657C12.4663 0.958252 10.5578 2.43651 10.0243 4.55325C10.0094 4.61258 10.0017 4.67516 10.0017 4.73655V38.1365H9.23999C8.82015 38.1365 8.47827 38.4759 8.47827 38.8921C8.47827 39.3095 8.82015 39.6481 9.23999 39.6481H12.2869C12.7067 39.6481 13.0486 39.3095 13.0486 38.8921C13.0486 38.4759 12.7067 38.1365 12.2869 38.1365H11.5251V27.1268L16.0955 32.2275V34.963C16.0955 35.3804 16.4364 35.7186 16.8572 35.7186H22.9509C23.3717 35.7186 23.7126 35.3804 23.7126 34.963V32.2275L28.283 27.1268V38.1365H27.5212C27.1008 38.1365 26.7595 38.4759 26.7595 38.8921C26.7595 39.3095 27.1008 39.6481 27.5212 39.6481H30.5681C30.988 39.6481 31.3298 39.3095 31.3298 38.8921C31.3298 38.4759 30.988 38.1365 30.5681 38.1365ZM11.5251 5.49222H28.283V24.3837H11.5251V5.49222ZM14.6657 2.46957H25.1424C26.2885 2.46957 27.3189 3.05875 27.9027 3.98089H11.9051C12.4892 3.05875 13.5196 2.46957 14.6657 2.46957ZM22.1892 34.2073H17.6189V32.696H22.1892V34.2073ZM22.609 31.1847H17.1991L12.4597 25.8951H27.3484L22.609 31.1847Z" />
</g>
<defs>
<clipPath id="clip0">
<rect width="39" height="38.6898" transform="translate(0 0.958252)"/>
</clipPath>
</defs>
</svg>
