<svg width="29" height="29" viewBox="0 0 29 29" xmlns="http://www.w3.org/2000/svg">
<g clip-path="url(#clip0)">
<path d="M27.7643 14.3962L27.7429 14.397C27.0852 14.4218 26.5174 14.884 26.3623 15.521L25.9072 17.3899C25.4749 19.1647 24.2858 20.6428 22.6447 21.4451C22.452 21.5392 22.2346 21.5186 22.0631 21.3897C21.8916 21.2608 21.8112 21.0577 21.8481 20.8464L22.2074 18.7886C22.3156 18.1686 21.9169 17.586 21.2997 17.4623C20.8312 17.3686 20.3621 17.5678 20.1045 17.9702L17.7792 21.6026C17.4463 21.3626 16.9782 21.3913 16.6788 21.6906L14.9921 23.3773C14.8262 23.5433 14.8262 23.8122 14.9921 23.9781L19.8896 28.8756C19.9726 28.9585 20.0813 29 20.19 29C20.2987 29 20.4075 28.9585 20.4904 28.8756L22.1771 27.1889C22.4926 26.8734 22.508 26.3703 22.2243 26.0357C22.7653 25.7348 23.2934 25.3899 23.7945 25.0098C23.9814 24.868 24.0179 24.6015 23.8761 24.4146C23.7344 24.2277 23.4679 24.1911 23.2809 24.333C22.4195 24.9864 21.6976 25.3524 21.6025 25.4089L18.401 22.2074L20.8201 18.4284C20.8875 18.3231 21.0102 18.2713 21.1328 18.2954C21.2944 18.3278 21.3987 18.4803 21.3703 18.6426L21.0111 20.7003C20.9195 21.2248 21.1271 21.7492 21.5526 22.0689C21.9782 22.3887 22.5396 22.4421 23.0178 22.2084C24.8863 21.2949 26.2404 19.6119 26.7326 17.591L27.1877 15.7221C27.3342 15.1204 28.1997 15.0924 28.1487 15.6197C27.8691 18.5022 26.5809 21.2142 24.5213 23.256C24.3547 23.4212 24.3535 23.6902 24.5187 23.8567C24.6838 24.0233 24.9527 24.0246 25.1194 23.8593C27.3195 21.6782 28.6957 18.7811 28.9943 15.7017C29.0636 14.9884 28.4901 14.3705 27.7643 14.3962ZM20.19 27.9745L15.8936 23.678L17.2834 22.2914L21.5763 26.5881L20.19 27.9745Z" />
<path d="M8.98312 7.16499L9.54794 7.47798C9.55264 7.48064 9.55655 7.48444 9.55926 7.48914L10.443 9.01968C10.4457 9.02433 10.4471 9.02965 10.4469 9.03503L10.4357 9.68079C10.4301 10.0001 10.5985 10.2977 10.8751 10.4574L12.1551 11.1964C12.2911 11.275 12.443 11.3142 12.5947 11.3142C12.7515 11.3142 12.9083 11.2723 13.0474 11.1887L13.6012 10.8559C13.6057 10.8533 13.6109 10.8518 13.6163 10.8518H15.3837C15.3891 10.8518 15.3943 10.8533 15.3989 10.856L15.9526 11.1887C16.2264 11.3532 16.5684 11.3562 16.8448 11.1964L18.1248 10.4574C18.4014 10.2978 18.5697 10.0002 18.5642 9.68079L18.553 9.03503C18.5529 9.02965 18.5543 9.02438 18.5569 9.01974L19.4407 7.48908C19.4434 7.48444 19.4473 7.48064 19.4518 7.4781L20.0168 7.16499C20.2961 7.01019 20.4697 6.71554 20.4697 6.39615V4.91811C20.4697 4.59877 20.2962 4.30418 20.0168 4.14927L19.452 3.83627C19.4473 3.83361 19.4434 3.82982 19.4406 3.82506L19.3896 3.73664C19.2723 3.53353 19.0124 3.46392 18.8093 3.58128C18.6061 3.69858 18.5366 3.95839 18.6539 4.16156L18.7049 4.24986C18.7846 4.38795 18.9004 4.5018 19.04 4.57923L19.6048 4.89228C19.6142 4.89755 19.6201 4.9074 19.6201 4.91811V6.39615C19.6201 6.40685 19.6143 6.41671 19.6049 6.42192L19.0398 6.73514C18.9004 6.81246 18.7846 6.92636 18.7049 7.06434L17.8211 8.59499C17.7414 8.73314 17.7007 8.89043 17.7035 9.04982L17.7147 9.69558C17.715 9.70628 17.7093 9.71625 17.7 9.72163L16.4199 10.4607C16.4107 10.4659 16.3991 10.4658 16.3901 10.4604L15.8365 10.1277C15.6998 10.0456 15.5432 10.0022 15.3837 10.0022H13.6163C13.4567 10.0022 13.3001 10.0456 13.1636 10.1277L12.6099 10.4604C12.6008 10.4659 12.5893 10.466 12.5801 10.4606L11.3001 9.72169C11.2908 9.71625 11.285 9.70634 11.2853 9.69558L11.2965 9.04982C11.2993 8.89043 11.2587 8.73314 11.1789 8.59494L10.2952 7.06439C10.2155 6.9263 10.0997 6.81246 9.96005 6.73503L9.39512 6.42192C9.38577 6.41676 9.37994 6.40685 9.37994 6.39615V4.91811C9.37994 4.9074 9.38583 4.89749 9.39506 4.89234L9.96022 4.57912C10.0997 4.5018 10.2155 4.3879 10.2951 4.24992L11.179 2.71926C11.2587 2.58112 11.2993 2.42383 11.2965 2.26444L11.2853 1.61868C11.285 1.60803 11.2907 1.59806 11.3 1.59268L12.5801 0.853579C12.5894 0.848254 12.6008 0.848368 12.6099 0.853918L13.1636 1.18663C13.3003 1.2687 13.4569 1.31214 13.6163 1.31214H15.3837C15.5431 1.31214 15.6996 1.26875 15.8365 1.18657L16.3901 0.853918C16.3993 0.848368 16.4107 0.848254 16.42 0.853635L17.7001 1.59274C17.7093 1.59806 17.715 1.60803 17.7147 1.61868L17.7035 2.2645C17.7012 2.39806 17.7309 2.53382 17.7895 2.65702C17.8904 2.86885 18.1439 2.95897 18.3556 2.85826C18.5675 2.7575 18.6576 2.50403 18.5569 2.29219C18.554 2.28619 18.553 2.28143 18.5531 2.27928L18.5643 1.63352C18.5698 1.31407 18.4014 1.01648 18.1249 0.85692L16.8448 0.117817C16.5682 -0.0419663 16.2262 -0.0390776 15.9525 0.125577L15.399 0.458114C15.3943 0.460946 15.389 0.462418 15.3837 0.462418H13.6163C13.6109 0.462418 13.6056 0.460946 13.601 0.458227L13.0475 0.125633C12.7738 -0.0389077 12.4318 -0.0420229 12.1552 0.11776L10.8751 0.856751C10.5985 1.01642 10.4302 1.31401 10.4357 1.63341L10.4469 2.27917C10.4471 2.28455 10.4457 2.28981 10.443 2.29446L9.55921 3.82512C9.55655 3.82976 9.55264 3.83355 9.54811 3.8361L8.98295 4.14927C8.70371 4.30418 8.53027 4.59883 8.53027 4.91805V6.39609C8.53027 6.71554 8.70376 7.01013 8.98312 7.16499Z"/>
<path d="M14.5002 3.08807C13.0836 3.08807 11.9312 4.2406 11.9312 5.65718C11.9312 7.07376 13.0837 8.22623 14.5002 8.22623C15.9168 8.22623 17.0693 7.0737 17.0693 5.65718C17.0694 4.24054 15.9168 3.08807 14.5002 3.08807ZM14.5002 7.37668C13.5521 7.37668 12.7808 6.60534 12.7808 5.65724C12.7808 4.70913 13.5521 3.93768 14.5002 3.93768C15.4483 3.93768 16.2197 4.70907 16.2197 5.65718C16.2197 6.60529 15.4483 7.37668 14.5002 7.37668Z" />
<path d="M22.2285 13.9987C23.2825 13.9987 24.1401 13.1412 24.1401 12.0872C24.1401 11.0331 23.2825 10.1756 22.2285 10.1756C21.1745 10.1756 20.3169 11.0331 20.3169 12.0872C20.3169 13.1412 21.1745 13.9987 22.2285 13.9987ZM22.2285 11.0252C22.8141 11.0252 23.2905 11.5016 23.2905 12.0872C23.2905 12.6727 22.8141 13.1491 22.2285 13.1491C21.6429 13.1491 21.1665 12.6727 21.1665 12.0872C21.1665 11.5016 21.643 11.0252 22.2285 11.0252Z" />
<path d="M19.2801 9.29956L19.2874 9.71684L18.7051 10.7254L18.3402 10.9277C18.1051 11.0579 17.959 11.3059 17.959 11.5748V12.5996C17.959 12.8683 18.105 13.1163 18.3401 13.2466L18.7051 13.4489L19.2874 14.4575L19.2801 14.8748C19.2754 15.1435 19.4171 15.394 19.6498 15.5284L20.5374 16.0408C20.6519 16.1069 20.7795 16.1398 20.9072 16.1398C21.0392 16.1398 21.1711 16.1046 21.2883 16.0342L21.6459 15.8193H22.8106L23.1683 16.0342C23.3986 16.1726 23.6863 16.1752 23.9192 16.0408L24.8067 15.5284C25.0395 15.394 25.1811 15.1436 25.1765 14.8748L25.1692 14.4575L25.7515 13.4489L26.1166 13.2466C26.3516 13.1162 26.4976 12.8683 26.4976 12.5996V11.5748C26.4976 11.3059 26.3516 11.058 26.1165 10.9278L25.7515 10.7254L25.1692 9.71684L25.1765 9.29956C25.1811 9.03075 25.0395 8.78034 24.8067 8.64599L23.9192 8.13356C23.6865 7.99915 23.3988 8.00182 23.1683 8.14013L22.8106 8.35508H21.6459L21.2883 8.14013C21.0579 8.00176 20.7702 7.99921 20.5373 8.13356L19.6498 8.64605C19.4171 8.7804 19.2754 9.03086 19.2801 9.29956ZM20.1306 9.34941L20.9061 8.90172L21.2346 9.09911C21.3496 9.16821 21.4813 9.20469 21.6155 9.20469H22.841C22.9752 9.20469 23.1069 9.16816 23.222 9.09906L23.5505 8.90172L24.3259 9.34941L24.3192 9.73252C24.3169 9.86688 24.3512 9.99936 24.4182 10.1153L25.0309 11.1763C25.0979 11.2927 25.1954 11.3886 25.3129 11.4537L25.648 11.6394V12.5349L25.3128 12.7207C25.1953 12.7858 25.0978 12.8817 25.0309 12.9977L24.4182 14.0589C24.3511 14.1752 24.3168 14.3076 24.3192 14.4418L24.3258 14.825L23.5504 15.2726L23.2219 15.0753C23.1069 15.0062 22.9752 14.9697 22.841 14.9697H21.6155C21.4814 14.9697 21.3497 15.0062 21.2345 15.0753L20.9061 15.2726L20.1306 14.825L20.1373 14.4418C20.1396 14.3076 20.1054 14.1752 20.0383 14.059L19.4257 12.998C19.3586 12.8816 19.2611 12.7857 19.1436 12.7207L18.8085 12.5349V11.6395L19.1433 11.4539C19.2609 11.3889 19.3586 11.2929 19.4256 11.1766L20.0381 10.1156C20.1054 9.99941 20.1396 9.86693 20.1373 9.73258L20.1306 9.34941Z" />
<path d="M6.77143 13.9987C7.82545 13.9987 8.68299 13.1412 8.68299 12.0872C8.68299 11.0331 7.82545 10.1756 6.77143 10.1756C5.7174 10.1756 4.85986 11.0331 4.85986 12.0872C4.85986 13.1412 5.7174 13.9987 6.77143 13.9987ZM6.77143 11.0252C7.35698 11.0252 7.83338 11.5016 7.83338 12.0872C7.83338 12.6727 7.35698 13.1491 6.77143 13.1491C6.18588 13.1491 5.70947 12.6727 5.70947 12.0872C5.70947 11.5016 6.18588 11.0252 6.77143 11.0252Z" />
<path d="M2.88309 13.2466L3.24814 13.4489L3.8304 14.4574L3.82304 14.8747C3.81839 15.1435 3.96011 15.394 4.19285 15.5283L5.08029 16.0406C5.31291 16.1751 5.60071 16.1726 5.83129 16.0342L6.18897 15.8192H7.35356L7.7113 16.0342C7.82844 16.1045 7.9603 16.1398 8.09238 16.1398C8.22005 16.1398 8.34778 16.1068 8.46219 16.0407L9.34964 15.5283C9.58243 15.394 9.72414 15.1435 9.7195 14.8747L9.71214 14.4574L10.2944 13.4489L10.6596 13.2465C10.8946 13.1161 11.0406 12.8682 11.0406 12.5995V11.5747C11.0406 11.3059 10.8946 11.058 10.6595 10.9277L10.2945 10.7253L9.71214 9.71677L9.7195 9.2995C9.72414 9.03074 9.58243 8.78027 9.34969 8.64592L8.46225 8.13355C8.22957 7.99903 7.94183 8.00164 7.71136 8.14007L7.35356 8.35502H6.18897L5.83118 8.14001C5.60071 8.00158 5.31303 7.9992 5.08035 8.1335L4.1929 8.64592C3.96011 8.78027 3.81839 9.03074 3.82304 9.29955L3.8304 9.71677L3.24814 10.7253L2.88314 10.9276C2.64803 11.058 2.50195 11.3059 2.50195 11.5747V12.5995C2.50195 12.8683 2.64797 13.1162 2.88309 13.2466ZM3.35156 11.6394L3.68631 11.4539C3.80378 11.3889 3.90143 11.293 3.96866 11.1766L4.58146 10.1152C4.64852 9.99901 4.68273 9.86664 4.68041 9.73246L4.67367 9.34945L5.44913 8.90171L5.77748 9.09899C5.89252 9.16815 6.02426 9.20468 6.15856 9.20468H7.38409C7.51833 9.20468 7.65008 9.16809 7.76506 9.09905L8.09357 8.90171L8.86898 9.34945L8.86224 9.73251C8.85992 9.86664 8.89413 9.99901 8.96125 10.1153L9.57405 11.1767C9.64128 11.2931 9.73887 11.3889 9.85634 11.4539L10.1911 11.6395V12.5349L9.856 12.7206C9.73864 12.7857 9.64111 12.8815 9.57399 12.9978L8.96114 14.0593C8.89407 14.1756 8.85992 14.3078 8.86224 14.442L8.86898 14.825L8.09352 15.2726L7.76517 15.0754C7.65013 15.0063 7.51839 14.9697 7.38409 14.9697H6.15856C6.02432 14.9697 5.89257 15.0063 5.77759 15.0754L5.44913 15.2726L4.67367 14.825L4.68041 14.4419C4.68273 14.3078 4.64858 14.1756 4.5814 14.0591L3.96861 12.9977C3.90149 12.8815 3.80401 12.7857 3.68659 12.7206L3.35151 12.5349V11.6394H3.35156Z" />
<path d="M12.3212 21.6906C12.0218 21.3913 11.5537 21.3626 11.2208 21.6026L8.89546 17.9702C8.63791 17.5679 8.16847 17.3681 7.70023 17.4623C7.08307 17.586 6.68432 18.1686 6.79262 18.7886L7.15183 20.8464C7.1887 21.0577 7.10839 21.2608 6.93688 21.3897C6.76549 21.5185 6.54793 21.5392 6.35524 21.445C4.71419 20.6427 3.52507 19.1646 3.09285 17.3899L2.63769 15.521C2.48255 14.8839 1.91478 14.4218 1.25673 14.397L1.23589 14.3962C0.515759 14.3686 -0.0637884 14.9844 0.00565305 15.7017C0.427569 20.0522 2.95771 23.912 6.77596 26.0355C6.49208 26.37 6.50726 26.8733 6.82286 27.189L8.50956 28.8757C8.59254 28.9586 8.70123 29 8.80999 29C8.91868 29 9.02743 28.9586 9.11035 28.8757L10.9955 26.9907C11.1614 26.8247 11.1614 26.5558 10.9955 26.3899C10.8296 26.2241 10.5606 26.224 10.3947 26.3899L8.81032 27.9742L7.42371 26.5845L11.7204 22.2915L13.1068 23.6779L11.5956 25.1889C11.4297 25.3549 11.4297 25.6238 11.5956 25.7897C11.7616 25.9555 12.0306 25.9556 12.1964 25.7897L14.0078 23.9783C14.0875 23.8986 14.1323 23.7906 14.1323 23.6779C14.1323 23.5651 14.0875 23.4572 14.0079 23.3774L12.3212 21.6906ZM0.851298 15.6197C0.831077 15.411 1.0019 15.2359 1.20417 15.2454C1.20983 15.2456 1.2309 15.2463 1.22524 15.2462C1.50963 15.2568 1.74554 15.4481 1.81221 15.7221L2.26737 17.591C2.75952 19.6119 4.11351 21.2948 5.98209 22.2084C6.46031 22.4421 7.02178 22.3888 7.44727 22.0689C7.87287 21.7491 8.08034 21.2248 7.98881 20.7003L7.62959 18.6426C7.60122 18.4803 7.70561 18.3278 7.86709 18.2954C7.98994 18.2709 8.11246 18.323 8.17986 18.4284L10.599 22.2074L7.39742 25.4089C7.34599 25.3612 1.53132 22.6317 0.851298 15.6197Z" />
</g>
<defs>
<clipPath id="clip0">
<rect width="29" height="29" />
</clipPath>
</defs>
</svg>
