<svg width="39" height="40" viewBox="0 0 39 40" xmlns="http://www.w3.org/2000/svg">
<g clip-path="url(#clip0)">
<path d="M29.3468 22.2087C30.8082 22.851 31.7524 24.2905 31.7524 25.8759V27.7927C31.7524 28.1057 32.0082 28.3594 32.3237 28.3594C32.6392 28.3594 32.8949 28.1057 32.8949 27.7927V25.8759C32.8949 23.8425 31.6839 21.9963 29.8033 21.1697L23.6079 18.5359C23.608 18.5204 23.6092 18.5048 23.6092 18.4894V16.0431C24.8852 14.9172 25.6911 13.2779 25.6911 11.4548L25.693 6.71946C25.693 5.46009 25.3112 4.24938 24.5889 3.21814C23.8834 2.21078 22.9044 1.44289 21.7577 0.997278C21.5346 0.91068 21.2808 0.971207 21.1219 1.14901L20.2604 2.113C19.7568 2.66561 19.0377 2.98253 18.2876 2.98253H16.5925C14.781 2.98253 13.3072 4.44442 13.3072 6.24136V9.30523V9.30531C13.3072 9.30531 13.3072 9.30531 13.3072 9.30538V11.4547C13.3072 13.2788 14.1138 14.9188 15.3909 16.0447V18.4894C15.3909 18.5126 15.3926 18.536 15.3931 18.5593L9.27984 21.1955C7.35134 22.0007 6.10518 23.8619 6.10518 25.9374V27.7927C6.10518 28.1057 6.36096 28.3595 6.67646 28.3595C6.99196 28.3595 7.24775 28.1057 7.24775 27.7927V25.9374C7.24775 24.3192 8.21931 22.8681 9.72917 22.2377L12.7655 20.9284C13.2668 22.1324 14.0824 23.1731 15.1513 23.9626C16.4157 24.8965 17.9191 25.3902 19.4992 25.3902C20.7483 25.3902 21.9811 25.0712 23.0642 24.4676C23.2167 24.3825 23.3683 24.2908 23.5147 24.1948C23.7779 24.0221 23.8502 23.6705 23.6761 23.4094C23.5021 23.1483 23.1476 23.0766 22.8845 23.2493C22.761 23.3303 22.6332 23.4077 22.5046 23.4793C21.592 23.9879 20.5527 24.2567 19.4991 24.2567C16.9766 24.2567 14.7519 22.7573 13.8129 20.4767L15.5803 19.7146C16.1087 21.3818 17.6811 22.5654 19.5001 22.5654C21.332 22.5654 22.9077 21.3719 23.4273 19.6924L25.198 20.4451C25.0201 20.882 24.7914 21.2974 24.5144 21.6846C24.3318 21.9399 24.3923 22.2937 24.6496 22.4748C24.7499 22.5455 24.8654 22.5794 24.9797 22.5794C25.1586 22.5794 25.3347 22.4963 25.4461 22.3406C25.7701 21.8877 26.0381 21.402 26.248 20.8915L29.3468 22.2087ZM14.4497 11.4547V9.82006C14.7086 9.7695 14.9598 9.68283 15.1936 9.56215C15.54 9.38344 15.8513 9.12727 16.094 8.82123C16.2891 8.57527 16.2462 8.2189 15.9983 8.02538C15.7503 7.83171 15.3911 7.87425 15.1961 8.12029C15.053 8.30066 14.8698 8.45149 14.6664 8.55645C14.5929 8.59431 14.5203 8.62446 14.4497 8.64864V6.24136C14.4497 5.06942 15.411 4.11601 16.5925 4.11601H18.2876C19.3601 4.11601 20.3881 3.663 21.1117 2.86903L21.7018 2.20867C23.4447 3.04238 24.5504 4.77305 24.5504 6.71939V7.87727C23.8339 8.14039 23.0796 8.2752 22.3042 8.2752C20.6155 8.2752 19.016 7.63478 17.8006 6.47191C17.5735 6.25466 17.2118 6.26116 16.9928 6.48642C16.7738 6.71175 16.7803 7.07046 17.0074 7.28779C18.437 8.65552 20.3181 9.40868 22.3042 9.40868C23.0728 9.40868 23.8244 9.29714 24.547 9.07642C24.549 9.11042 24.5485 11.4547 24.5485 11.4547C24.5485 14.2164 22.2833 16.4632 19.4991 16.4632C16.7149 16.4632 14.4497 14.2164 14.4497 11.4547ZM19.5 21.4319C18.0032 21.4319 16.7375 20.3225 16.5559 18.8507C16.541 18.7313 16.5335 18.6097 16.5335 18.4893V16.8448C17.4147 17.3238 18.4253 17.5966 19.4991 17.5966C20.5737 17.5966 21.585 17.3233 22.4667 16.8436V18.4894C22.4667 18.6038 22.4598 18.7194 22.446 18.8345C22.2727 20.3152 21.0062 21.4319 19.5 21.4319Z" />
<path d="M24.2308 32.7423L21.4435 32.3405L20.1969 29.8352C20.0659 29.572 19.8008 29.4084 19.5048 29.4084C19.2088 29.4084 18.9436 29.572 18.8127 29.8352L17.5661 32.3406L14.7787 32.7424C14.4859 32.7846 14.2471 32.9844 14.1557 33.2636C14.0642 33.5429 14.1391 33.8436 14.351 34.0485L16.368 35.9986L15.8918 38.7522C15.8419 39.0415 15.9595 39.3284 16.1989 39.501C16.4383 39.6735 16.7497 39.696 17.0117 39.5594L19.5048 38.2592L21.9979 39.5594C22.1118 39.6188 22.2351 39.6481 22.3577 39.6481C22.517 39.6481 22.6754 39.5985 22.8107 39.501C23.0501 39.3284 23.1678 39.0415 23.1177 38.7521L22.6416 35.9986L24.6584 34.0485C24.8704 33.8436 24.9453 33.5429 24.8539 33.2636C24.7626 32.9844 24.5238 32.7846 24.2308 32.7423ZM19.1724 30.3369L19.1728 30.3378C19.1727 30.3374 19.1725 30.3371 19.1724 30.3369C19.1724 30.3369 19.1724 30.3369 19.1724 30.3369ZM21.7046 35.3218C21.5226 35.4978 21.4397 35.7512 21.4826 35.9996L21.8648 38.2093L19.8639 37.1659C19.6389 37.0486 19.3705 37.0487 19.1456 37.1659L17.1448 38.2093L17.527 35.9996C17.57 35.7511 17.487 35.4977 17.305 35.3217L15.6865 33.7569L17.9232 33.4345C18.1747 33.3982 18.3921 33.2416 18.5043 33.0156L19.5048 31.005L20.5051 33.0154C20.6175 33.2416 20.8348 33.3982 21.0863 33.4344L23.3231 33.7569L21.7046 35.3218Z" />
<path d="M11.4027 32.7423L8.61541 32.3405L7.36887 29.8352C7.23785 29.572 6.9727 29.4084 6.6767 29.4084C6.3807 29.4084 6.11555 29.572 5.98461 29.8352L4.73807 32.3406L1.95066 32.7424C1.65779 32.7846 1.41899 32.9844 1.32758 33.2636C1.23618 33.5429 1.31105 33.8436 1.52296 34.0485L3.5399 35.9986L3.06375 38.7522C3.01378 39.0415 3.13139 39.3284 3.3708 39.501C3.6102 39.6735 3.92159 39.696 4.18362 39.5594L6.6767 38.2592L9.16986 39.5594C9.28374 39.6188 9.40698 39.6481 9.52962 39.6481C9.68897 39.6481 9.84733 39.5985 9.9826 39.501C10.222 39.3284 10.3397 39.0415 10.2897 38.7521L9.81351 35.9986L11.8304 34.0485C12.0423 33.8436 12.1172 33.5429 12.0258 33.2636C11.9345 32.9844 11.6957 32.7846 11.4027 32.7423ZM6.34429 30.3369L6.34467 30.3378C6.3446 30.3374 6.34444 30.3371 6.34429 30.3369ZM8.87652 35.3218C8.69455 35.4978 8.6116 35.7512 8.65456 35.9996L9.03671 38.2093L7.03585 37.1659C6.81092 37.0487 6.54249 37.0487 6.31755 37.1659L4.31677 38.2093L4.69892 35.9996C4.74188 35.7511 4.65893 35.4977 4.47688 35.3217L2.85839 33.7569L5.09508 33.4345C5.34668 33.3982 5.56399 33.2416 5.67627 33.0156L6.6767 31.005L7.67698 33.0154C7.78941 33.2416 8.00673 33.3982 8.25824 33.4344L10.495 33.7569L8.87652 35.3218Z" />
<path d="M37.6725 33.2636C37.5811 32.9843 37.3423 32.7846 37.0493 32.7423L34.262 32.3405L33.0155 29.8352C32.8845 29.572 32.6193 29.4084 32.3233 29.4084C32.0273 29.4084 31.7622 29.572 31.6312 29.8352L30.3847 32.3406L27.5973 32.7424C27.3044 32.7846 27.0656 32.9844 26.9742 33.2636C26.8828 33.5429 26.9577 33.8436 27.1696 34.0485L29.1865 35.9986L28.7104 38.7522C28.6604 39.0415 28.778 39.3284 29.0174 39.501C29.2568 39.6735 29.5682 39.696 29.8302 39.5594L32.3233 38.2592L34.8165 39.5594C34.9303 39.6188 35.0536 39.6481 35.1762 39.6481C35.3356 39.6481 35.4939 39.5985 35.6292 39.501C35.8686 39.3284 35.9863 39.0415 35.9363 38.7521L35.4601 35.9986L37.477 34.0485C37.689 33.8435 37.7639 33.5429 37.6725 33.2636ZM31.9909 30.3369L31.9913 30.3378C31.9911 30.3374 31.991 30.3371 31.9909 30.3369C31.9908 30.3369 31.9908 30.3369 31.9909 30.3369ZM34.5231 35.3218C34.3411 35.4978 34.2581 35.7512 34.3011 35.9996L34.6832 38.2093L32.6824 37.1659C32.4574 37.0487 32.189 37.0487 31.9641 37.1659L29.9633 38.2093L30.3454 35.9996C30.3884 35.7511 30.3055 35.4977 30.1234 35.3217L28.5049 33.7569L30.7416 33.4345C30.9932 33.3982 31.2105 33.2416 31.3228 33.0156L32.3232 31.005L33.3235 33.0154C33.4359 33.2416 33.6533 33.3982 33.9048 33.4344L36.1415 33.7569L34.5231 35.3218Z" />
</g>
<defs>
<clipPath id="clip0">
<rect width="39" height="38.6898" transform="translate(0 0.958252)"/>
</clipPath>
</defs>
</svg>
