<svg width="29" height="29" viewBox="0 0 29 29"  xmlns="http://www.w3.org/2000/svg">
<path d="M27.6689 4.43898L22.6221 2.33642C22.0685 2.10584 21.4335 2.1059 20.88 2.33648L18.4569 3.34576C18.2403 3.43604 18.1379 3.6847 18.2281 3.90129C18.3183 4.11788 18.567 4.2204 18.7836 4.13012L21.2067 3.12078C21.5525 2.97669 21.9494 2.97663 22.2954 3.12073L27.342 5.22317C27.8328 5.42792 28.15 5.88836 28.15 6.39603V24.5635C28.15 25.27 27.5433 25.8447 26.7975 25.8447H26.1087C25.8741 25.8447 25.6839 26.0349 25.6839 26.2695C25.6839 26.5042 25.8741 26.6943 26.1087 26.6943H26.7975C28.0117 26.6943 28.9997 25.7385 28.9997 24.5635V6.39603C28.9997 5.54438 28.4773 4.77622 27.6689 4.43898Z" />
<path d="M24.2575 25.8448H17.1196C17.4135 25.5107 17.5745 25.0869 17.5745 24.6383C17.5745 24.1907 17.4124 23.7805 17.1443 23.4624C17.3133 23.3761 17.4699 23.2632 17.6081 23.1251C17.9532 22.78 18.1431 22.3211 18.1431 21.8329C18.1431 21.3676 17.968 20.9425 17.6805 20.6196C17.8229 20.539 17.9554 20.4391 18.0741 20.3202C18.4192 19.9752 18.6092 19.5164 18.6092 19.0281C18.6092 18.5641 18.4352 18.1401 18.1494 17.8175C18.2941 17.7362 18.4289 17.6351 18.5497 17.5145C18.8946 17.1689 19.0844 16.7101 19.0844 16.2226C19.0844 15.2148 18.2647 14.3948 17.2572 14.3948H15.3523V6.39604C15.3523 5.88832 15.6696 5.42789 16.1602 5.22324L16.9328 4.90152C17.1494 4.81135 17.2519 4.5627 17.1617 4.34605C17.0715 4.12946 16.8228 4.02682 16.6062 4.11717L15.8333 4.439C15.025 4.77618 14.5027 5.5444 14.5027 6.39604V14.3949H12.7278C13.3188 12.5271 13.2685 10.5778 12.5787 8.31542C12.474 7.97281 12.2655 7.67935 11.9758 7.46678C11.6878 7.25551 11.3465 7.14376 10.9887 7.14376C10.5277 7.14376 10.0991 7.32784 9.78172 7.66207C9.46448 7.99625 9.30294 8.43375 9.32684 8.8939C9.45966 11.4482 8.28143 12.3274 6.65069 13.5443C6.11379 13.9449 5.52699 14.3831 4.95028 14.9205V14.3637C4.95028 14.129 4.76013 13.9389 4.52547 13.9389H0.424805C0.190143 13.9389 0 14.129 0 14.3637V26.4117C0 26.6464 0.190143 26.8365 0.424805 26.8365H4.52559C4.76025 26.8365 4.95039 26.6464 4.95039 26.4117V25.343C5.75724 25.4198 6.34653 25.5806 6.91905 26.0194C7.29492 26.3074 7.75824 26.4661 8.22365 26.4661H15.7156C16.0217 26.6153 16.361 26.6943 16.705 26.6943H24.2574C24.4921 26.6943 24.6822 26.5042 24.6822 26.2695C24.6822 26.0349 24.4921 25.8448 24.2575 25.8448ZM7.43589 25.345C6.63488 24.7312 5.77882 24.5606 4.95039 24.4891V19.5288C4.95039 19.2941 4.76025 19.104 4.52559 19.104C4.29092 19.104 4.10078 19.2941 4.10078 19.5288V25.987H0.849609V14.7885H4.10078V17.6778C4.10078 17.9125 4.29092 18.1026 4.52559 18.1026C4.76025 18.1026 4.95039 17.9125 4.95039 17.6778V16.1273C5.661 15.3431 6.42191 14.7753 7.15892 14.2253C8.79068 13.0077 10.3319 11.8576 10.1755 8.84983C10.1638 8.62468 10.2428 8.41064 10.3981 8.24712C10.5534 8.08348 10.7632 7.99342 10.9888 7.99342C11.1646 7.99342 11.3321 8.04819 11.4733 8.15185C11.6143 8.25527 11.7156 8.39778 11.7664 8.56368C12.4689 10.8681 12.4579 12.8069 11.7317 14.6652C11.6807 14.796 11.6975 14.9435 11.7766 15.0594C11.8557 15.1753 11.987 15.2447 12.1274 15.2447H17.2573C17.7964 15.2447 18.2349 15.6835 18.2349 16.2229C18.2349 16.4837 18.1332 16.7293 17.949 16.9139C17.7638 17.0987 17.5182 17.2005 17.2573 17.2005H15.5122C15.2775 17.2005 15.0874 17.3906 15.0874 17.6253C15.0874 17.8599 15.2775 18.0501 15.5122 18.0501H16.7821C17.3211 18.0501 17.7597 18.4889 17.7597 19.0283C17.7597 19.2896 17.6581 19.5351 17.4734 19.7197C17.2889 19.9043 17.0433 20.0059 16.7821 20.0059H15.5122C15.2775 20.0059 15.0874 20.1961 15.0874 20.4307C15.0874 20.6654 15.2775 20.8555 15.5122 20.8555H16.3158C16.8549 20.8555 17.2935 21.2941 17.2935 21.8332C17.2935 22.0944 17.1918 22.34 17.0073 22.5246C16.8223 22.7096 16.5767 22.8113 16.3158 22.8113H15.7472H15.046C14.8113 22.8113 14.6212 23.0015 14.6212 23.2362C14.6212 23.4708 14.8113 23.661 15.046 23.661H15.7472C16.2863 23.661 16.7248 24.0995 16.7248 24.6386C16.7248 24.8998 16.6231 25.1456 16.439 25.3302C16.2665 25.5023 15.9939 25.6121 15.7899 25.6157C15.7758 25.616 8.22365 25.6168 8.22365 25.6168C7.94407 25.6165 7.66427 25.5201 7.43589 25.345Z" />
<path d="M23.2847 6.58472C23.2847 5.69207 22.5584 4.96582 21.6658 4.96582C20.7731 4.96582 20.0469 5.69207 20.0469 6.58472C20.0469 7.47738 20.7731 8.20363 21.6658 8.20363C22.5584 8.20363 23.2847 7.47738 23.2847 6.58472ZM20.8965 6.58472C20.8965 6.16054 21.2416 5.81543 21.6658 5.81543C22.09 5.81543 22.4351 6.16054 22.4351 6.58472C22.4351 7.00891 22.09 7.35402 21.6658 7.35402C21.2416 7.35402 20.8965 7.00896 20.8965 6.58472Z" />
<path d="M21.9311 21.0796H21.1692C20.7679 21.0796 20.4415 20.7531 20.4415 20.3518C20.4415 20.1171 20.2513 19.927 20.0167 19.927C19.782 19.927 19.5919 20.1171 19.5919 20.3518C19.5919 21.2069 20.2758 21.9047 21.1253 21.9281V22.8682C21.1253 23.1029 21.3155 23.293 21.5501 23.293C21.7848 23.293 21.975 23.1029 21.975 22.8682V21.9281C22.8245 21.9047 23.5085 21.2069 23.5085 20.3518V19.7637C23.5085 19.2181 23.1599 18.7383 22.6409 18.5696L20.7219 17.9463C20.5542 17.8917 20.4415 17.7367 20.4415 17.5603V16.7182C20.4415 16.3923 20.7066 16.1271 21.0325 16.1271H22.0679C22.3938 16.1271 22.6589 16.3923 22.6589 16.7182C22.6589 16.9529 22.8491 17.143 23.0837 17.143C23.3184 17.143 23.5086 16.9529 23.5086 16.7182C23.5086 15.9238 22.8623 15.2775 22.0679 15.2775H21.975V14.3385C21.975 14.1038 21.7848 13.9137 21.5501 13.9137C21.3155 13.9137 21.1253 14.1038 21.1253 14.3385V15.2775H21.0325C20.2381 15.2775 19.5918 15.9238 19.5918 16.7182V17.5603C19.5918 18.1059 19.9404 18.5857 20.4594 18.7543L22.3783 19.3776C22.5461 19.4322 22.6588 19.5873 22.6588 19.7637V20.3518C22.6589 20.7531 22.3324 21.0796 21.9311 21.0796Z" />
</svg>
