<svg width="29" height="29" viewBox="0 0 29 29"  xmlns="http://www.w3.org/2000/svg">
<g clip-path="url(#clip0)">
<path d="M14.0104 11.0576C14.1994 11.237 14.5136 11.2007 14.6572 10.9841L17.4845 6.71702C17.6142 6.52143 17.5606 6.2577 17.3651 6.12804C17.1697 5.99861 16.906 6.05215 16.7763 6.24752L14.2284 10.0929L12.8126 8.74856C12.6424 8.58704 12.3736 8.59412 12.2119 8.76427C12.0504 8.93441 12.0574 9.20323 12.2276 9.36475C12.2274 9.36475 14.0089 11.0562 14.0104 11.0576Z"  />
<path d="M14.3002 17.5369C14.3814 17.5741 14.4713 17.5938 14.5606 17.5938H14.5642C14.6551 17.5933 14.7463 17.5725 14.8277 17.5336C21.2874 14.4615 22.3821 7.83322 22.5636 5.87492C22.6052 5.42777 22.3534 5.01137 21.9372 4.83879C20.6513 4.30491 19.7771 3.11103 19.6559 1.72311C19.6185 1.29588 19.2534 0.962891 18.8233 0.962891H18.8182L10.1155 1.014C9.67672 1.01643 9.32028 1.34986 9.28665 1.78949C9.17957 3.17785 8.31823 4.38036 7.03873 4.92774C6.62676 5.10385 6.38117 5.52246 6.42807 5.96939C6.63251 7.92549 7.80493 14.5407 14.3002 17.5369ZM7.37282 5.70876C8.94172 5.03792 9.99864 3.56504 10.1329 1.86339L18.8107 1.8125C18.9649 3.51039 20.0369 4.96977 21.6115 5.62335C21.6819 5.65278 21.7246 5.72225 21.7177 5.79659C21.5474 7.63188 20.5281 13.8201 14.5591 16.72C8.55586 13.8907 7.46486 7.71441 7.27281 5.88111C7.26507 5.80699 7.30534 5.73774 7.37282 5.70876Z"  />
<path d="M8.4338 8.06374C8.48513 8.25269 8.72474 8.42571 8.95529 8.36221C9.18141 8.29982 9.31527 8.06728 9.25376 7.84094C9.14556 7.44224 9.05463 7.03801 8.98317 6.63755C10.1372 5.88551 10.9937 4.76309 11.4138 3.45217L17.5487 3.41611C17.9842 4.72172 18.8537 5.8344 20.0166 6.57272C19.95 6.97429 19.8637 7.37985 19.7599 7.7801C19.7011 8.00732 19.8376 8.2392 20.0646 8.29805C20.292 8.3569 20.5237 8.22039 20.5826 7.99316C20.7042 7.52322 20.8034 7.0462 20.8768 6.57538C20.918 6.31231 20.7976 6.05366 20.5706 5.91648C19.4874 5.26224 18.6866 4.23585 18.316 3.02648C18.2326 2.75456 17.9762 2.56561 17.6917 2.56561H17.6877L11.2647 2.60323C10.9784 2.605 10.7222 2.79771 10.6419 3.07162C10.2857 4.28519 9.49691 5.32087 8.4214 5.98795C8.19595 6.12756 8.07891 6.38753 8.12294 6.65038C8.20214 7.1201 8.30657 7.59557 8.4338 8.06374Z"  />
<path d="M19.7237 9.32333C19.5069 9.23351 19.2586 9.33705 19.169 9.55388C18.1873 11.9332 16.6333 13.7422 14.5486 14.9328C12.4478 13.7652 10.8712 11.9715 9.86182 9.59968C9.76978 9.38396 9.52021 9.28351 9.30448 9.37533C9.08854 9.46715 8.98809 9.71672 9.07991 9.93244C10.1815 12.5207 11.917 14.4719 14.2382 15.7315C14.336 15.7848 14.4431 15.8111 14.5499 15.8111C14.6595 15.8111 14.7688 15.7835 14.8683 15.7279C17.172 14.4427 18.8832 12.4744 19.9545 9.87779C20.0441 9.66097 19.9408 9.41272 19.7237 9.32333Z"  />
<path d="M2.72562 22.7001C1.89703 22.7001 1.22266 23.3742 1.22266 24.203C1.22266 25.0319 1.89703 25.706 2.72562 25.706C3.55444 25.706 4.22881 25.0319 4.22881 24.203C4.22881 23.3742 3.55466 22.7001 2.72562 22.7001ZM2.72562 24.8564C2.36543 24.8564 2.07227 24.5635 2.07227 24.203C2.07227 23.8428 2.36543 23.5497 2.72562 23.5497C3.08604 23.5497 3.3792 23.8428 3.3792 24.203C3.3792 24.5635 3.08604 24.8564 2.72562 24.8564Z"  />
<path d="M28.6953 18.5411C28.1508 17.7411 27.0545 17.5291 26.2516 18.0686L20.6982 21.7854L19.5127 21.7188L19.4824 21.4152C19.3642 20.2264 18.4555 19.2792 17.2727 19.112C17.2652 19.1109 17.2579 19.11 17.2504 19.1093L11.2664 18.585C11.0639 18.5533 10.4159 18.3672 8.63526 17.3459C7.70976 16.8152 6.667 16.5156 5.60764 16.4749V15.3635C5.60764 14.8057 5.15407 14.3522 4.5963 14.3522H1.01134C0.453788 14.3522 0 14.806 0 15.3635V26.3091C0 26.8667 0.453788 27.3204 1.01134 27.3204H4.5963C5.15385 27.3204 5.60764 26.8667 5.60764 26.3091V26.0075L10.8385 27.9884C10.85 27.9928 11.2748 28.1517 12.0558 28.078C12.058 28.0778 20.7473 26.8251 20.7473 26.8251C20.7495 26.8248 20.7515 26.8244 20.7537 26.824C21.4962 26.7056 22.1965 26.3916 22.779 25.9166C22.7843 25.9122 22.7894 25.9077 22.7945 25.9033L28.4079 20.8546C29.0695 20.2671 29.1931 19.2726 28.6953 18.5411ZM27.8417 20.2211L22.2343 25.2646C21.7701 25.6409 21.213 25.8898 20.6227 25.9845L11.9377 27.2366C11.9357 27.2368 11.9328 27.2373 11.9301 27.2377C11.9288 27.2379 11.9273 27.2381 11.9259 27.2384C11.6662 27.2793 11.3956 27.262 11.1215 27.187L5.60764 25.0991V20.2477C5.60764 20.0129 5.41736 19.8229 5.18284 19.8229C4.94809 19.8229 4.75803 20.0129 4.75803 20.2477V26.3091C4.75803 26.3983 4.68546 26.4708 4.5963 26.4708H1.01134C0.92218 26.4708 0.849609 26.3983 0.849609 26.3091V15.3635C0.849609 15.2744 0.92218 15.2018 1.01134 15.2018H4.5963C4.68546 15.2018 4.75803 15.2744 4.75803 15.3635V18.3287C4.75803 18.5635 4.94831 18.7535 5.18284 18.7535C5.41758 18.7535 5.60764 18.5633 5.60764 18.3287V17.3254C6.51898 17.3656 7.41549 17.6258 8.21244 18.0832C10.3601 19.3149 10.96 19.3998 11.1571 19.4277C11.1646 19.4288 11.1719 19.4295 11.1794 19.4304L17.1641 19.9547C17.9531 20.0713 18.558 20.705 18.637 21.4993L18.6595 21.7256L10.6473 22.2204C10.6418 22.2199 10.6363 22.2195 10.6314 22.219C10.3716 22.1956 10.1371 22.0728 9.97051 21.8732C9.82028 21.6929 9.55235 21.6685 9.37225 21.819C9.19193 21.9692 9.16759 22.2372 9.31804 22.4173C9.62979 22.7912 10.0696 23.0149 10.5557 23.0653C10.8181 23.0928 19.1268 22.548 19.1268 22.548L20.7924 22.6416C20.8844 22.6469 20.9758 22.6217 21.0524 22.5704L26.7248 18.7741C27.1415 18.4942 27.7103 18.604 27.9928 19.0191C28.251 19.3987 28.1869 19.9147 27.8417 20.2211Z"  />
</g>
<defs>
<clipPath id="clip0">
<rect width="29" height="29"/>
</clipPath>
</defs>
</svg>
