<svg width="14" height="14" viewBox="0 0 14 14" fill="none" xmlns="http://www.w3.org/2000/svg">
<g clip-path="url(#clip0)">
<path d="M13.64 11.9005L11.168 9.42798C10.7023 10.1114 10.1112 10.7026 9.42773 11.1682L11.9 13.6405C12.14 13.8804 12.4548 14.0001 12.77 14.0001C13.0853 14.0001 13.4001 13.8804 13.64 13.6405C14.1199 13.1606 14.1199 12.3803 13.64 11.9005Z" fill="#1A893A"/>
<path d="M5.74219 2.46094C3.93293 2.46094 2.46094 3.93293 2.46094 5.74219C2.46094 7.55144 3.93293 9.02344 5.74219 9.02344C7.55144 9.02344 9.02344 7.55144 9.02344 5.74219C9.02344 3.93293 7.55144 2.46094 5.74219 2.46094Z" fill="#1A893A"/>
<path d="M5.74219 0C2.57589 0 0 2.57589 0 5.74219C0 8.90848 2.57589 11.4844 5.74219 11.4844C8.90848 11.4844 11.4844 8.90848 11.4844 5.74219C11.4844 2.57589 8.90848 0 5.74219 0ZM5.74219 9.84375C3.48072 9.84375 1.64062 8.00365 1.64062 5.74219C1.64062 3.48072 3.48072 1.64062 5.74219 1.64062C8.00365 1.64062 9.84375 3.48072 9.84375 5.74219C9.84375 8.00365 8.00365 9.84375 5.74219 9.84375Z" fill="#1A893A"/>
</g>
<defs>
<clipPath id="clip0">
<rect width="14" height="14" fill="white"/>
</clipPath>
</defs>
</svg>
