<svg width="19" height="19" viewBox="0 0 19 19" xmlns="http://www.w3.org/2000/svg">
<g clip-path="url(#clip0)">
<path d="M15.766 10.3139C15.4589 9.92596 15.5468 9.75338 15.766 9.40662C15.77 9.40267 18.3057 5.89875 18.567 4.71046L18.5685 4.70967C18.6984 4.27662 18.5685 3.95837 17.9408 3.95837H15.8634C15.3346 3.95837 15.0907 4.2315 14.9601 4.53708C14.9601 4.53708 13.9025 7.06883 12.4062 8.70996C11.9233 9.18417 11.7 9.33617 11.4364 9.33617C11.3066 9.33617 11.1047 9.18417 11.1047 8.75112V4.70967C11.1047 4.19033 10.9567 3.95837 10.5189 3.95837H7.25246C6.92075 3.95837 6.72363 4.20062 6.72363 4.42625C6.72363 4.91867 7.47175 5.03187 7.54933 6.41729V9.42325C7.54933 10.0819 7.42979 10.203 7.16458 10.203C6.45842 10.203 4.74446 7.661 3.72875 4.75162C3.52371 4.18717 3.32342 3.95917 2.79063 3.95917H0.7125C0.119542 3.95917 0 4.23229 0 4.53787C0 5.07779 0.706166 7.76233 3.28383 11.309C5.00175 13.7299 7.42108 15.0417 9.62192 15.0417C10.9448 15.0417 11.1063 14.7504 11.1063 14.2493C11.1063 11.936 10.9868 11.7175 11.6494 11.7175C11.9565 11.7175 12.4854 11.8695 13.7204 13.0372C15.1319 14.4218 15.3639 15.0417 16.154 15.0417H18.2313C18.8235 15.0417 19.1235 14.7504 18.9509 14.1756C18.5559 12.9668 15.8864 10.4801 15.766 10.3139Z"/>
</g>
<defs>
<clipPath id="clip0">
<rect width="19" height="19" fill="white"/>
</clipPath>
</defs>
</svg>
