<svg width="39" height="39" viewBox="0 0 39 39" xmlns="http://www.w3.org/2000/svg">
<path d="M34.582 6.36149L28.2205 0H9.29297V20.7396C6.56624 20.9724 4.41797 23.2647 4.41797 26.0508C4.41797 27.6504 5.12698 29.0865 6.24609 30.0647V39H7.50179L9.75 36.7518L11.9982 39H13.2539V35.0391H34.582V6.36149ZM28.4883 1.56038L33.0217 6.09375H28.4883V1.56038ZM5.33203 26.0508C5.33203 23.6147 7.31395 21.6328 9.75 21.6328C12.1861 21.6328 14.168 23.6147 14.168 26.0508C14.168 28.4868 12.1861 30.4688 9.75 30.4688C7.31395 30.4688 5.33203 28.4868 5.33203 26.0508ZM9.75 35.4592L7.16016 38.049V30.7094C7.92759 31.1377 8.8105 31.3829 9.75 31.3829C10.6895 31.3829 11.5724 31.1377 12.3398 30.7094V38.049L9.75 35.4592ZM13.2539 34.125V30.0647C14.373 29.0865 15.082 27.6504 15.082 26.0508C15.082 23.2648 12.9338 20.9725 10.207 20.7396V0.914062H27.5742V7.00781H33.668V34.125H13.2539Z" />
<path d="M13.4062 4.875H20.7188V5.78906H13.4062V4.875Z" />
<path d="M13.4062 7.3125H18.2812V8.22656H13.4062V7.3125Z" />
<path d="M13.4062 10.9688H30.4688V11.8828H13.4062V10.9688Z" />
<path d="M13.4062 13.4062H30.4688V14.3203H13.4062V13.4062Z" />
<path d="M13.4062 18.2812H30.4688V19.1953H13.4062V18.2812Z" />
<path d="M15.8438 20.7188H28.0312V21.6328H15.8438V20.7188Z" />
<path d="M13.4062 15.8438H30.4688V16.7578H13.4062V15.8438Z" />
<path d="M23.1562 24.375H30.4688V25.2891H23.1562V24.375Z" />
<path d="M25.5938 26.8125H30.4688V27.7266H25.5938V26.8125Z" />
<path d="M9.75 28.9453C11.346 28.9453 12.6445 27.6468 12.6445 26.0508C12.6445 24.4548 11.346 23.1562 9.75 23.1562C8.15397 23.1562 6.85547 24.4548 6.85547 26.0508C6.85547 27.6468 8.15397 28.9453 9.75 28.9453ZM9.75 24.0703C10.8421 24.0703 11.7305 24.9587 11.7305 26.0508C11.7305 27.1429 10.8421 28.0312 9.75 28.0312C8.65792 28.0312 7.76953 27.1429 7.76953 26.0508C7.76953 24.9587 8.65792 24.0703 9.75 24.0703Z" />
</svg>
