<svg width="13" height="13" viewBox="0 0 13 13" xmlns="http://www.w3.org/2000/svg">
<g clip-path="url(#clip0)">
<path d="M11.1535 1.84647C9.96275 0.655693 8.3799 0 6.69579 0C6.69569 0 6.69529 0 6.69519 0C5.86226 9.91821e-05 5.05055 0.161369 4.28278 0.479446C3.51492 0.797523 2.82699 1.25743 2.23795 1.84647C1.04727 3.03716 0.391573 4.6203 0.391573 6.30421C0.391573 7.30843 0.633874 8.3064 1.09299 9.19557L0.0333267 12.2228C-0.0413575 12.4363 0.0115066 12.6684 0.171587 12.8284C0.283563 12.9405 0.430948 13 0.582498 13C0.647462 13 0.713121 12.9891 0.777193 12.9667L3.80443 11.9071C4.6936 12.3662 5.69157 12.6085 6.69579 12.6085C8.3797 12.6085 9.96275 11.9527 11.1535 10.7621C12.3442 9.57137 13 7.98823 13 6.30431C13 4.6203 12.3443 3.03716 11.1535 1.84647ZM10.6144 10.2229C9.56771 11.2697 8.17598 11.846 6.69579 11.846C5.79025 11.846 4.89067 11.6221 4.09424 11.1982C3.94983 11.1214 3.77914 11.1082 3.6259 11.1619L0.875581 12.1244L1.83824 9.3741C1.8919 9.22066 1.87861 9.04997 1.80184 8.90566C1.37804 8.10943 1.15399 7.20985 1.15399 6.30421C1.15399 4.82402 1.73043 3.4323 2.7771 2.38563C3.82367 1.33906 5.2152 0.762611 6.69529 0.762413H6.69579C8.17608 0.762413 9.56771 1.33886 10.6144 2.38563C11.6611 3.4323 12.2376 4.82392 12.2376 6.30421C12.2376 7.78451 11.6611 9.17623 10.6144 10.2229Z"/>
<path d="M9.03839 6.86746C8.74838 6.57745 8.27647 6.57745 7.98646 6.86746L7.66928 7.18464C6.88167 6.75548 6.24433 6.11813 5.81507 5.33053L6.13225 5.01334C6.42236 4.72334 6.42236 4.25143 6.13225 3.96142L5.2775 3.10667C4.98749 2.81666 4.51558 2.81666 4.22557 3.10667L3.54181 3.79043C3.15014 4.1821 3.1306 4.85545 3.48677 5.68649C3.79602 6.40804 4.36195 7.2011 5.08033 7.91948C5.7987 8.63786 6.59176 9.20379 7.31331 9.51304C7.70816 9.68225 8.06729 9.76665 8.37763 9.76665C8.72051 9.76665 9.00377 9.6636 9.20938 9.45799L9.89314 8.77413V8.77423C10.0337 8.63369 10.111 8.44693 10.111 8.24827C10.111 8.04951 10.0337 7.86275 9.89314 7.72231L9.03839 6.86746ZM8.67022 8.91884C8.55844 9.03062 8.21468 9.0698 7.61373 8.81232C6.97917 8.54036 6.27091 8.03175 5.61948 7.38033C4.96805 6.7289 4.45954 6.02074 4.18759 5.38617C3.93001 4.78523 3.96919 4.44136 4.08097 4.32958L4.75164 3.65891L5.58 4.48738L5.18298 4.88451C5.00346 5.06403 4.96012 5.33628 5.07527 5.56202C5.59726 6.58558 6.41423 7.40254 7.43778 7.92454C7.66362 8.03969 7.93588 7.99645 8.1154 7.81683L8.51242 7.4198L9.34089 8.24827L8.67022 8.91884Z"/>
</g>
<defs>
<clipPath id="clip0">
<rect width="13" height="13"/>
</clipPath>
</defs>
</svg>
